<svg xmlns="http://www.w3.org/2000/svg" width="20.522" height="24.782" viewBox="0 0 20.522 24.782">
  <g id="checklist" transform="translate(-44.001)">
    <g id="Group_99" data-name="Group 99" transform="translate(53.778 7.357)">
      <g id="Group_98" data-name="Group 98">
        <path id="Path_57" data-name="Path 57" d="M253.455,152h-6.97a.484.484,0,1,0,0,.968h6.97a.484.484,0,1,0,0-.968Z" transform="translate(-246.001 -152)" fill="#414141"/>
      </g>
    </g>
    <g id="Group_101" data-name="Group 101" transform="translate(58.712 9.68)">
      <g id="Group_100" data-name="Group 100" transform="translate(0)">
        <path id="Path_58" data-name="Path 58" d="M348.767,200.143a.484.484,0,1,0,.142.342A.488.488,0,0,0,348.767,200.143Z" transform="translate(-347.941 -200.001)" fill="#414141"/>
      </g>
    </g>
    <g id="Group_103" data-name="Group 103" transform="translate(53.778 2.081)">
      <g id="Group_102" data-name="Group 102">
        <path id="Path_59" data-name="Path 59" d="M246.817,43.143a.484.484,0,1,0,.142.342A.488.488,0,0,0,246.817,43.143Z" transform="translate(-245.991 -43.001)" fill="#414141"/>
      </g>
    </g>
    <g id="Group_105" data-name="Group 105" transform="translate(53.778 9.68)">
      <g id="Group_104" data-name="Group 104">
        <path id="Path_60" data-name="Path 60" d="M249.383,200h-2.9a.484.484,0,1,0,0,.968h2.9a.484.484,0,1,0,0-.968Z" transform="translate(-246.001 -200)" fill="#414141"/>
      </g>
    </g>
    <g id="Group_107" data-name="Group 107" transform="translate(53.778 12.585)">
      <g id="Group_106" data-name="Group 106">
        <path id="Path_61" data-name="Path 61" d="M253.455,260h-6.97a.484.484,0,1,0,0,.968h6.97a.484.484,0,1,0,0-.968Z" transform="translate(-246.001 -260)" fill="#414141"/>
      </g>
    </g>
    <g id="Group_109" data-name="Group 109" transform="translate(58.712 14.908)">
      <g id="Group_108" data-name="Group 108" transform="translate(0)">
        <path id="Path_62" data-name="Path 62" d="M348.767,308.143a.484.484,0,1,0,.142.342A.488.488,0,0,0,348.767,308.143Z" transform="translate(-347.941 -308.001)" fill="#414141"/>
      </g>
    </g>
    <g id="Group_111" data-name="Group 111" transform="translate(53.778 14.908)">
      <g id="Group_110" data-name="Group 110">
        <path id="Path_63" data-name="Path 63" d="M249.383,308h-2.9a.484.484,0,1,0,0,.968h2.9a.484.484,0,1,0,0-.968Z" transform="translate(-246.001 -308)" fill="#414141"/>
      </g>
    </g>
    <g id="Group_113" data-name="Group 113" transform="translate(53.778 17.812)">
      <g id="Group_112" data-name="Group 112">
        <path id="Path_64" data-name="Path 64" d="M253.455,368h-6.97a.484.484,0,1,0,0,.968h6.97a.484.484,0,1,0,0-.968Z" transform="translate(-246.001 -368)" fill="#414141"/>
      </g>
    </g>
    <g id="Group_115" data-name="Group 115" transform="translate(58.712 20.135)">
      <g id="Group_114" data-name="Group 114" transform="translate(0)">
        <path id="Path_65" data-name="Path 65" d="M348.767,416.143a.484.484,0,1,0,.142.342A.488.488,0,0,0,348.767,416.143Z" transform="translate(-347.941 -416.001)" fill="#414141"/>
      </g>
    </g>
    <g id="Group_117" data-name="Group 117" transform="translate(53.778 20.135)">
      <g id="Group_116" data-name="Group 116">
        <path id="Path_66" data-name="Path 66" d="M249.383,416h-2.9a.484.484,0,1,0,0,.968h2.9a.484.484,0,1,0,0-.968Z" transform="translate(-246.001 -416)" fill="#414141"/>
      </g>
    </g>
    <g id="Group_119" data-name="Group 119" transform="translate(44.001)">
      <g id="Group_118" data-name="Group 118">
        <path id="Path_67" data-name="Path 67" d="M62.163,1.888h-3.7a2.965,2.965,0,0,0-2.052-.823h-.424a1.936,1.936,0,0,0-3.458,0h-.425a2.965,2.965,0,0,0-2.051.823h-3.7A2.363,2.363,0,0,0,44,4.248V22.422a2.363,2.363,0,0,0,2.36,2.36h15.8a2.363,2.363,0,0,0,2.36-2.36V4.248A2.363,2.363,0,0,0,62.163,1.888Zm-10.055.145h.754a.484.484,0,0,0,.467-.355.968.968,0,0,1,1.866,0,.484.484,0,0,0,.467.355h.753a2.011,2.011,0,0,1,2,1.839h-8.31A2.012,2.012,0,0,1,52.108,2.033ZM63.555,22.422a1.394,1.394,0,0,1-1.392,1.392h-15.8a1.394,1.394,0,0,1-1.392-1.392V4.248a1.394,1.394,0,0,1,1.392-1.392h3.018a2.959,2.959,0,0,0-.247,1.186v.315a.484.484,0,0,0,.484.484h9.292a.484.484,0,0,0,.484-.484V4.042a2.959,2.959,0,0,0-.247-1.186h3.019a1.394,1.394,0,0,1,1.392,1.392Z" transform="translate(-44.001)" fill="#414141"/>
      </g>
    </g>
    <g id="Group_121" data-name="Group 121" transform="translate(46.966 7.099)">
      <g id="Group_120" data-name="Group 120" transform="translate(0)">
        <path id="Path_68" data-name="Path 68" d="M109.479,146.809a.484.484,0,0,0-.685,0l-2.07,2.07-.638-.638a.484.484,0,0,0-.685.685l.98.98a.484.484,0,0,0,.685,0l2.412-2.412A.484.484,0,0,0,109.479,146.809Z" transform="translate(-105.261 -146.667)" fill="#414141"/>
      </g>
    </g>
    <g id="Group_123" data-name="Group 123" transform="translate(47.196 17.812)">
      <g id="Group_122" data-name="Group 122" transform="translate(0)">
        <path id="Path_69" data-name="Path 69" d="M112.808,368h-2.323a.484.484,0,0,0-.484.484v2.323a.484.484,0,0,0,.484.484h2.323a.484.484,0,0,0,.484-.484v-2.323A.484.484,0,0,0,112.808,368Z" transform="translate(-110.001 -368)" fill="#414141"/>
      </g>
    </g>
    <g id="Group_125" data-name="Group 125" transform="translate(47.196 12.585)">
      <g id="Group_124" data-name="Group 124" transform="translate(0)">
        <path id="Path_70" data-name="Path 70" d="M112.808,260h-2.323a.484.484,0,0,0-.484.484v2.323a.484.484,0,0,0,.484.484h2.323a.484.484,0,0,0,.484-.484v-2.323A.484.484,0,0,0,112.808,260Z" transform="translate(-110.001 -260)" fill="#414141"/>
      </g>
    </g>
  </g>
</svg>
